<svg width="724" height="625" viewBox="0 0 724 625" fill="none" xmlns="http://www.w3.org/2000/svg">
<path d="M11.81 624.5H133.41C139.94 624.5 145.23 619.21 145.23 612.68V534.57C145.23 524.34 150.84 514.93 159.84 510.06L278.26 446.02C287.27 441.15 292.88 431.73 292.88 421.49V310.27C292.88 302.01 286.18 295.31 277.92 295.31H161.4C153.14 295.31 146.44 302.01 146.44 310.27V463.76C146.44 471.9 141.93 479.37 134.74 483.18L10.7401 548.64C4.14005 552.13 0 558.98 0 566.45V612.69C0 619.22 5.29001 624.51 11.82 624.51L11.81 624.5Z" fill="#CAB8FE"/>
<path d="M227.24 624.5H348.84C355.37 624.5 360.66 619.21 360.66 612.68V534.57C360.66 524.34 366.27 514.93 375.27 510.06L493.69 446.02C502.7 441.15 508.31 431.73 508.31 421.49V162.61C508.31 154.35 501.61 147.65 493.35 147.65H376.83C368.57 147.65 361.87 154.35 361.87 162.61V463.75C361.87 471.89 357.36 479.36 350.17 483.17L226.17 548.63C219.57 552.12 215.43 558.97 215.43 566.44V612.68C215.43 619.21 220.72 624.5 227.25 624.5H227.24Z" fill="#8158F2"/>
<path d="M442.67 624.5H564.27C570.8 624.5 576.09 619.21 576.09 612.68V534.57C576.09 524.34 581.7 514.93 590.7 510.06L709.12 446.02C718.13 441.15 723.74 431.73 723.74 421.49V14.96C723.74 6.70002 717.04 0 708.78 0H592.26C584 0 577.3 6.70002 577.3 14.96V463.76C577.3 471.9 572.79 479.37 565.6 483.18L441.6 548.64C435 552.13 430.86 558.98 430.86 566.45V612.69C430.86 619.22 436.15 624.51 442.68 624.51L442.67 624.5Z" fill="#5214FF"/>
</svg>
