<svg width="1024" height="1024" viewBox="0 0 1024 1024" fill="none" xmlns="http://www.w3.org/2000/svg">
<rect width="1024" height="1024" rx="148" fill="white"/>
<path d="M161.81 824.5H283.41C289.94 824.5 295.23 819.21 295.23 812.68V734.57C295.23 724.34 300.84 714.93 309.84 710.06L428.26 646.02C437.27 641.15 442.88 631.73 442.88 621.49V510.27C442.88 502.01 436.18 495.31 427.92 495.31H311.4C303.14 495.31 296.44 502.01 296.44 510.27V663.76C296.44 671.9 291.93 679.37 284.74 683.18L160.74 748.64C154.14 752.13 150 758.98 150 766.45V812.69C150 819.22 155.29 824.51 161.82 824.51L161.81 824.5Z" fill="#CAB8FE"/>
<path d="M377.24 824.5H498.84C505.37 824.5 510.66 819.21 510.66 812.68V734.57C510.66 724.34 516.27 714.93 525.27 710.06L643.69 646.02C652.7 641.15 658.31 631.73 658.31 621.49V362.61C658.31 354.35 651.61 347.65 643.35 347.65H526.83C518.57 347.65 511.87 354.35 511.87 362.61V663.75C511.87 671.89 507.36 679.36 500.17 683.17L376.17 748.63C369.57 752.12 365.43 758.97 365.43 766.44V812.68C365.43 819.21 370.72 824.5 377.25 824.5H377.24Z" fill="#8158F2"/>
<path d="M592.67 824.5H714.27C720.8 824.5 726.09 819.21 726.09 812.68V734.57C726.09 724.34 731.7 714.93 740.7 710.06L859.12 646.02C868.13 641.15 873.74 631.73 873.74 621.49V214.96C873.74 206.7 867.04 200 858.78 200H742.26C734 200 727.3 206.7 727.3 214.96V663.76C727.3 671.9 722.79 679.37 715.6 683.18L591.6 748.64C585 752.13 580.86 758.98 580.86 766.45V812.69C580.86 819.22 586.15 824.51 592.68 824.51L592.67 824.5Z" fill="#5214FF"/>
</svg>
